<svg xmlns="http://www.w3.org/2000/svg" xmlns:xlink="http://www.w3.org/1999/xlink" xmlns:serif="http://www.serif.com/" viewBox="0 0 32 40" version="1.1" xml:space="preserve" style="" x="0px" y="0px" fill-rule="evenodd" clip-rule="evenodd" stroke-linejoin="round" stroke-miterlimit="2"><path d="M15.502,30.25l-4.139,-0c-0.422,0 -0.763,-0.342 -0.763,-0.763l-0,-2.346l4.902,-0l0,3.109Zm2.977,-0l-0,-3.416c-0,-0.193 -0.077,-0.379 -0.214,-0.516c-0.137,-0.137 -0.323,-0.213 -0.516,-0.213l-0.999,-0c-0.193,-0 -0.379,0.076 -0.516,0.213c-0.137,0.137 -0.213,0.323 -0.213,0.516l-0,3.416l2.458,-0Zm5.421,-3.109l-0,2.346c-0,0.421 -0.342,0.763 -0.763,0.763l-4.14,-0l-0,-3.109l4.903,-0Zm-1.632,-3.282l-11.668,0l-0,2.764l4.92,-0c0.044,-0.253 0.164,-0.488 0.348,-0.671c0.234,-0.234 0.551,-0.366 0.882,-0.366c0.322,0 0.678,0 0.999,0c0.331,0 0.648,0.132 0.882,0.366c0.184,0.183 0.304,0.418 0.348,0.671l4.921,-0l-0,-2.764l-1.632,0Zm0.609,-0.518c2.047,-0 3.707,-1.66 3.707,-3.707l-0,-12.506c-0,-1.426 -0.567,-2.794 -1.576,-3.803c-1.008,-1.008 -2.376,-1.575 -3.803,-1.575c-2.321,-0 -5.033,-0 -7.474,-0c-1.619,0 -3.152,0.73 -4.173,1.986c-1.022,1.257 -1.423,2.906 -1.092,4.491l0.703,3.368l3.245,0c0.801,0 1.57,0.319 2.137,0.886c0.336,0.336 0.585,0.744 0.732,1.187l5.211,0c0.537,0 1.052,-0.213 1.431,-0.593c0.38,-0.379 0.593,-0.894 0.593,-1.431c-0,-1.252 -0,-2.553 -0,-2.553c-0,-0.143 0.116,-0.259 0.259,-0.259c0.143,-0 0.259,0.116 0.259,0.259c-0,-0 -0,1.301 -0,2.553c-0,0.675 -0.268,1.321 -0.745,1.798c-0.476,0.477 -1.123,0.744 -1.797,0.744l-5.089,0l0.031,0.433c-0,1.669 -1.353,3.022 -3.022,3.022l-2.048,-0l1.587,3.077c0.065,0.127 0.015,0.283 -0.112,0.349c-0.127,0.065 -0.283,0.015 -0.349,-0.112l-1.709,-3.314l-1.515,-0c-0.143,-0 -0.259,-0.116 -0.259,-0.259c-0,-0.143 0.116,-0.259 0.259,-0.259l4.146,-0c1.383,-0 2.504,-1.121 2.504,-2.504c-0,-0.001 -0,-0.001 -0,-0.002c-0,-0.664 -0.264,-1.3 -0.734,-1.77c-0.469,-0.47 -1.106,-0.733 -1.77,-0.733l-3.456,-0c-0.95,-0 -1.86,0.377 -2.532,1.048c-0.671,0.671 -1.048,1.582 -1.048,2.531l-0,3.126c-0,1.2 0.476,2.35 1.324,3.198c0.848,0.848 1.998,1.324 3.197,1.324l12.978,-0Z"/><text x="0" y="47" fill="#000000" font-size="5px" font-weight="bold" font-family="'Helvetica Neue', Helvetica, Arial-Unicode, Arial, Sans-serif">Created by Singlar</text><text x="0" y="52" fill="#000000" font-size="5px" font-weight="bold" font-family="'Helvetica Neue', Helvetica, Arial-Unicode, Arial, Sans-serif">from the Noun Project</text></svg>